<svg xmlns="http://www.w3.org/2000/svg" width="14" height="17" viewBox="0 0 14 17"><g><g><path fill="#187daf" d="M11 9.969h1v1.146h-1zM8.5 12.26h1v1.146h-1zm-2 0h1v1.146h-1zm-2 0h1v1.146h-1zm-2.5 0h1v1.146H2zM8.5 9.97h1v1.146h-1zm-2 0h1v1.146h-1zm-2 0h1v1.146h-1zm-2.5 0h1v1.146H2zm9-2.292h1v1.146h-1zm-2.5 0h1v1.146h-1zm-2 0h1v1.146h-1zm-2 0h1v1.146h-1zm-2.5 0h1v1.146H2zm12-4.315v11.029c0 1.037-.736 1.88-1.64 1.88H1.64c-.904 0-1.64-.843-1.64-1.88V3.362c0-1.036.736-1.88 1.64-1.88h.657V.23H3.39v1.253h7.218V.23h1.094v1.253h.656c.905 0 1.641.844 1.641 1.88zM12.906 6.12H1.094v8.272c0 .345.245.627.547.627h10.718c.302 0 .547-.282.547-.627zm0-2.757c0-.345-.245-.626-.547-.626h-.656v1.253H10.61V2.736H3.391v1.253H2.297V2.736H1.64c-.302 0-.547.28-.547.626v1.504h11.812z"/></g></g></svg>