<?xml version="1.0" encoding="UTF-8"?>
<svg width="44px" height="44px" viewBox="0 0 44 44" version="1.1" xmlns="http://www.w3.org/2000/svg" xmlns:xlink="http://www.w3.org/1999/xlink">
    <title>Group 2</title>
    <g id="Sources" stroke="none" stroke-width="1" fill="none" fill-rule="evenodd">
        <g id="Group-2">
            <circle id="Oval" fill="#FFFFFF" cx="22" cy="22" r="22"></circle>
            <path d="M14.0588235,10 L14.0588235,11.3529412 L18.1176471,11.3529412 L18.1176471,10 L19.4705882,10 L19.4705882,11.3529412 L23.5294118,11.3529412 L23.5294118,10 L24.8823529,10 L24.8823529,11.3529412 L28.9411765,11.3529412 L28.9411765,10 L30.2941176,10 L30.2941176,11.3529412 L33,11.3529412 L33,33 L10,33 L10,11.3529412 L12.7058824,11.3529412 L12.7058824,10 L14.0588235,10 Z M20.8235294,27.5882353 L16.7647059,27.5882353 L16.7647059,31.6470588 L20.8235294,31.6470588 L20.8235294,27.5882353 Z M26.2352941,27.5882353 L22.1764706,27.5882353 L22.1764706,31.6470588 L26.2352941,31.6470588 L26.2352941,27.5882353 Z M15.4117647,27.5882353 L11.3529412,27.5882353 L11.3529412,31.6470588 L15.4117647,31.6470588 L15.4117647,27.5882353 Z M31.6470588,27.5882353 L27.5882353,27.5882353 L27.5882353,31.6470588 L31.6470588,31.6470588 L31.6470588,27.5882353 Z M30.2941176,28.9411765 L30.2941176,30.2941176 L28.9411765,30.2941176 L28.9411765,28.9411765 L30.2941176,28.9411765 Z M24.8823529,28.9411765 L24.8823529,30.2941176 L23.5294118,30.2941176 L23.5294118,28.9411765 L24.8823529,28.9411765 Z M19.4705882,28.9411765 L19.4705882,30.2941176 L18.1176471,30.2941176 L18.1176471,28.9411765 L19.4705882,28.9411765 Z M20.8235294,22.1764706 L16.7647059,22.1764706 L16.7647059,26.2352941 L20.8235294,26.2352941 L20.8235294,22.1764706 Z M26.2352941,22.1764706 L22.1764706,22.1764706 L22.1764706,26.2352941 L26.2352941,26.2352941 L26.2352941,22.1764706 Z M31.6470588,22.1764706 L27.5882353,22.1764706 L27.5882353,26.2352941 L31.6470588,26.2352941 L31.6470588,22.1764706 Z M15.4117647,22.1764706 L11.3529412,22.1764706 L11.3529412,26.2352941 L15.4117647,26.2352941 L15.4117647,22.1764706 Z M20.8235294,16.7647059 L16.7647059,16.7647059 L16.7647059,20.8235294 L20.8235294,20.8235294 L20.8235294,16.7647059 Z M26.2352941,16.7647059 L22.1764706,16.7647059 L22.1764706,20.8235294 L26.2352941,20.8235294 L26.2352941,16.7647059 Z M31.6470588,16.7647059 L27.5882353,16.7647059 L27.5882353,20.8235294 L31.6470588,20.8235294 L31.6470588,16.7647059 Z M15.4117647,16.7647059 L11.3529412,16.7647059 L11.3529412,20.8235294 L15.4117647,20.8235294 L15.4117647,16.7647059 Z M12.7058824,12.7058824 L11.3529412,12.7058824 L11.3529412,15.4117647 L31.6470588,15.4117647 L31.6470588,12.7058824 L30.2941176,12.7058824 L30.2941176,14.0588235 L28.9411765,14.0588235 L28.9411765,12.7058824 L24.8823529,12.7058824 L24.8823529,14.0588235 L23.5294118,14.0588235 L23.5294118,12.7058824 L19.4705882,12.7058824 L19.4705882,14.0588235 L18.1176471,14.0588235 L18.1176471,12.7058824 L14.0588235,12.7058824 L14.0588235,14.0588235 L12.7058824,14.0588235 L12.7058824,12.7058824 Z" id="Book" fill="#114358" fill-rule="nonzero"></path>
        </g>
    </g>
</svg>