<?xml version="1.0" encoding="UTF-8"?>
<svg width="44px" height="44px" viewBox="0 0 44 44" version="1.1" xmlns="http://www.w3.org/2000/svg" xmlns:xlink="http://www.w3.org/1999/xlink">
    <title>Group 3</title>
    <g id="Sources" stroke="none" stroke-width="1" fill="none" fill-rule="evenodd">
        <g id="Group-3">
            <circle id="Oval-Copy" fill="#FFFFFF" cx="22" cy="22" r="22"></circle>
            <path d="M23.8676491,16.7854685 C24.2825491,16.7854685 24.6188991,17.1212685 24.6188991,17.5354684 L24.6188991,17.5354684 L24.6188991,30.5089177 L26.6733489,30.5089177 L26.6733489,20.5069183 C26.6733489,20.0927183 27.0096989,19.7569183 27.4245989,19.7569183 L27.4245989,19.7569183 L31.5725487,19.7569183 C31.9874486,19.7569183 32.3237986,20.0927183 32.3237986,20.5069183 L32.3237986,20.5069183 L32.3237986,30.5089177 L33.8360485,30.5089177 C34.2509485,30.5089177 34.5872985,30.8447177 34.5872985,31.2589176 C34.5872985,31.6731176 34.2509485,32.0089176 33.8360485,32.0089176 L33.8360485,32.0089176 L9.75124996,32.0089176 C9.33634998,32.0089176 9,31.6731176 9,31.2589176 C9,30.8447177 9.33634998,30.5089177 9.75124996,30.5089177 L9.75124996,30.5089177 L11.2634999,30.5089177 L11.2634999,19.7132183 C11.2634999,19.2990183 11.5998498,18.9632184 12.0147498,18.9632184 L12.0147498,18.9632184 L16.1627496,18.9632184 C16.5776495,18.9632184 16.9139995,19.2990183 16.9139995,19.7132183 L16.9139995,19.7132183 L16.9139995,30.5089177 L18.9684494,30.5089177 L18.9684494,17.5354684 C18.9684494,17.1212685 19.3047994,16.7854685 19.7196994,16.7854685 L19.7196994,16.7854685 Z M15.4114996,20.4632183 L12.7659998,20.4632183 L12.7659998,30.5089177 L15.4114996,30.5089177 L15.4114996,20.4632183 Z M23.1163992,18.2854684 L20.4708993,18.2854684 L20.4708993,30.5089177 L23.1163992,30.5089177 L23.1163992,18.2854684 Z M30.8213487,21.2569182 L28.1758489,21.2569182 L28.1758489,30.5089177 L30.8213487,30.5089177 L30.8213487,21.2569182 Z M21.3705993,12.0711188 C21.5910992,11.9674688 21.8484992,11.9776188 22.0602992,12.0982688 L22.0602992,12.0982688 L29.4270988,16.2922685 L31.3699987,15.0933186 L30.6845987,14.9267186 C30.2820987,14.8289186 30.0351487,14.4233186 30.1329987,14.0208187 C30.2307987,13.6183187 30.6362487,13.3710687 31.0388987,13.4692187 L31.0388987,13.4692187 L33.4621485,14.0582187 C33.8804985,14.1555686 34.0631985,14.5404686 34.0382985,14.8539186 C34.0297485,14.9327686 34.0275485,14.9279686 34.0216485,14.9620686 L34.0216485,14.9620686 L33.5017485,17.3967685 C33.2454986,18.3381184 31.8622486,18.0606184 32.0348486,17.0834685 L32.0348486,17.0834685 L32.1916986,16.3488685 L29.8364488,17.8023184 C29.5333988,17.9695184 29.2644488,17.9170684 29.0714988,17.8158684 L29.0714988,17.8158684 L21.6559992,13.5941187 L14.3157497,17.0395185 C14.0853497,17.1476685 13.8158497,17.1315685 13.5999997,16.9968185 L13.5999997,16.9968185 L9.75319996,14.5960686 C9.40179998,14.3767186 9.29469998,13.9140687 9.51399997,13.5627187 C9.73334996,13.2113187 10.1959999,13.1041187 10.5473499,13.3235687 L10.5473499,13.3235687 L14.0478997,15.5082186 Z" id="Report" fill="#114358" fill-rule="nonzero"></path>
        </g>
    </g>
</svg>